<svg width="16" height="16" viewBox="0 0 16 16" fill="none" xmlns="http://www.w3.org/2000/svg">
<path d="M9.04665 2.83301H9.19665C9.94198 2.83301 10.4167 2.83301 10.8207 2.94101C11.3575 3.08497 11.847 3.36769 12.24 3.76078C12.6329 4.15386 12.9155 4.64345 13.0593 5.18034C13.1673 5.58367 13.1673 6.05834 13.1673 6.80367V7.88634C13.1673 8.24301 13.1673 8.53967 13.1473 8.78301C13.1273 9.03634 13.082 9.27367 12.9673 9.49834C12.7917 9.84328 12.5114 10.1238 12.1667 10.2997C11.9413 10.4143 11.704 10.4597 11.4507 10.4797C11.208 10.4997 10.9107 10.4997 10.5547 10.4997H9.44732C9.09132 10.4997 8.79398 10.4997 8.55065 10.4797C8.29732 10.4597 8.05998 10.4143 7.83532 10.2997C7.49038 10.1241 7.20988 9.8438 7.03398 9.49901C6.91932 9.27367 6.87398 9.03634 6.85398 8.78301C6.83398 8.53967 6.83398 8.24301 6.83398 7.88634V5.04634C6.83398 4.69701 6.83398 4.42701 6.89665 4.19301C6.97987 3.88214 7.14344 3.59866 7.37094 3.37105C7.59843 3.14344 7.88183 2.97972 8.19265 2.89634C8.42732 2.83301 8.69732 2.83301 9.04665 2.83301ZM9.11198 3.83367C8.66665 3.83367 8.54198 3.83767 8.45198 3.86234C8.31074 3.90014 8.18194 3.97443 8.07849 4.07776C7.97505 4.18109 7.90061 4.30981 7.86265 4.45101C7.83865 4.54101 7.83398 4.66567 7.83398 5.11101V7.86634C7.83398 8.24767 7.83398 8.50434 7.85065 8.70101C7.86598 8.89301 7.89398 8.98434 7.92465 9.04501C8.00465 9.20167 8.13198 9.32901 8.28932 9.40901C8.34932 9.43967 8.44065 9.46767 8.63265 9.48301C8.82932 9.49901 9.08598 9.49967 9.46732 9.49967H10.534C10.9153 9.49967 11.172 9.49967 11.3693 9.48301C11.5607 9.46767 11.652 9.43967 11.7127 9.40901C11.8694 9.32913 11.9968 9.20171 12.0767 9.04501C12.1073 8.98434 12.1353 8.89301 12.1507 8.70167C12.1667 8.50434 12.1673 8.24834 12.1673 7.86634V6.88834C12.1673 6.59101 12.1673 6.35634 12.1633 6.16634H11.0007C10.6912 6.16634 10.3945 6.04342 10.1757 5.82463C9.9569 5.60584 9.83398 5.30909 9.83398 4.99967V3.83701C9.59333 3.83357 9.35266 3.83291 9.11198 3.83367ZM10.834 3.99967V4.99967C10.834 5.09167 10.9087 5.16634 11.0007 5.16634H12.0007C11.7808 4.63881 11.3615 4.21948 10.834 3.99967Z" fill="#007BFF"/>
<path opacity="0.5" d="M5.66465 5.5H5.66732C5.79993 5.5 5.9271 5.55268 6.02087 5.64645C6.11464 5.74022 6.16732 5.86739 6.16732 6C6.16732 6.13261 6.11464 6.25978 6.02087 6.35355C5.9271 6.44732 5.79993 6.5 5.66732 6.5C5.26598 6.5 4.85798 6.49667 4.45932 6.556C4.06798 6.614 3.87998 6.93733 3.85065 7.29867C3.83465 7.49533 3.83398 7.752 3.83398 8.13333V10.5333C3.83398 10.9147 3.83398 11.1713 3.85065 11.368C3.88665 11.8107 4.17132 12.1127 4.63198 12.15C4.82932 12.166 5.08532 12.1667 5.46732 12.1667H6.53398C6.88398 12.1667 7.38398 12.2427 7.71265 12.076C7.99532 11.932 8.15798 11.6447 8.16732 11.3327C8.16922 11.2007 8.22253 11.0747 8.3159 10.9815C8.40928 10.8882 8.53536 10.8351 8.66732 10.8333C8.94398 10.8333 9.16998 11.0707 9.16732 11.3447C9.15132 12.0247 8.77865 12.6547 8.16665 12.9667C7.68065 13.214 7.08198 13.1667 6.55398 13.1667H5.44732C4.91932 13.1667 4.32065 13.214 3.83532 12.9667C3.49048 12.7912 3.20999 12.5112 3.03398 12.1667C2.91932 11.9413 2.87398 11.704 2.85398 11.4507C2.83398 11.2073 2.83398 10.9107 2.83398 10.554V8.114C2.83398 7.75733 2.83398 7.46067 2.85398 7.21733C2.90732 6.56867 3.24198 6.00267 3.83532 5.70067C4.12865 5.55067 4.49532 5.538 4.81865 5.51933C5.15665 5.50067 5.49798 5.50067 5.66532 5.50067" fill="#007BFF"/>
</svg>
