<svg width="28" height="20" viewBox="0 0 28 20" fill="none" xmlns="http://www.w3.org/2000/svg">
<rect width="28" height="20" rx="2" fill="white"/>
<mask id="mask0_1400_20517" style="mask-type:luminance" maskUnits="userSpaceOnUse" x="0" y="0" width="28" height="20">
<rect width="28" height="20" rx="2" fill="white"/>
</mask>
<g mask="url(#mask0_1400_20517)">
<rect width="28" height="20" fill="#043CAE"/>
<path d="M14.667 16.667L14.9434 17.6094L14 17.333L13.0576 17.6094L13.333 16.667L13.0576 15.7236L14 16L14.9434 15.7236L14.667 16.667ZM11.333 15.7734L11.6094 16.7168L10.667 16.4404L9.72363 16.7168L10 15.7734L9.72363 14.8311L10.667 15.1074L11.6094 14.8311L11.333 15.7734ZM18 15.7734L18.2764 16.7168L17.333 16.4404L16.3906 16.7168L16.667 15.7734L16.3906 14.8311L17.333 15.1074L18.2764 14.8311L18 15.7734ZM8.89355 13.333L9.16895 14.2764L8.22656 14L7.28418 14.2764L7.55957 13.333L7.28418 12.3906L8.22656 12.667L9.16895 12.3906L8.89355 13.333ZM20.4404 13.333L20.7168 14.2764L19.7734 14L18.8311 14.2764L19.1074 13.333L18.8311 12.3906L19.7734 12.667L20.7168 12.3906L20.4404 13.333ZM8 10L8.27637 10.9434L7.33301 10.667L6.39062 10.9434L6.66699 10L6.39062 9.05762L7.33301 9.33301L8.27637 9.05762L8 10ZM21.333 10L21.6094 10.9434L20.667 10.667L19.7236 10.9434L20 10L19.7236 9.05762L20.667 9.33301L21.6094 9.05762L21.333 10ZM8.89355 6.66699L9.16895 7.60938L8.22656 7.33301L7.28418 7.60938L7.55957 6.66699L7.28418 5.72363L8.22656 6L9.16895 5.72363L8.89355 6.66699ZM20.4404 6.66699L20.7168 7.60938L19.7734 7.33301L18.8311 7.60938L19.1074 6.66699L18.8311 5.72363L19.7734 6L20.7168 5.72363L20.4404 6.66699ZM11.333 4.22656L11.6094 5.16895L10.667 4.89355L9.72363 5.16895L10 4.22656L9.72363 3.28418L10.667 3.55957L11.6094 3.28418L11.333 4.22656ZM18 4.22656L18.2764 5.16895L17.333 4.89355L16.3906 5.16895L16.667 4.22656L16.3906 3.28418L17.333 3.55957L18.2764 3.28418L18 4.22656ZM14.667 3.33301L14.9434 4.27637L14 4L13.0576 4.27637L13.333 3.33301L13.0576 2.39062L14 2.66699L14.9434 2.39062L14.667 3.33301Z" fill="#FFD429"/>
</g>
</svg>
