<svg width="20" height="20" viewBox="0 0 20 20" fill="none" xmlns="http://www.w3.org/2000/svg">
<path d="M9.1582 5.38408C10.7111 5.19901 12.2819 5.52729 13.6308 6.31877C14.9796 7.11026 16.0323 8.32146 16.6282 9.76741C16.6838 9.91709 16.6838 10.0817 16.6282 10.2314C16.3832 10.8254 16.0594 11.3837 15.6655 11.8914" stroke="#64748B" stroke-width="1.33333" stroke-linecap="round" stroke-linejoin="round"/>
<path d="M11.3914 11.4381C11.0142 11.8024 10.509 12.004 9.98457 11.9995C9.46018 11.9949 8.95856 11.7846 8.58774 11.4137C8.21692 11.0429 8.00659 10.5413 8.00203 10.0169C7.99747 9.49252 8.19906 8.98731 8.56338 8.61011" stroke="#64748B" stroke-width="1.33333" stroke-linecap="round" stroke-linejoin="round"/>
<path d="M13.6537 13.6663C12.7693 14.1901 11.7826 14.5176 10.7606 14.6265C9.73849 14.7354 8.70496 14.6232 7.73008 14.2975C6.75519 13.9718 5.86178 13.4402 5.11046 12.7388C4.35914 12.0373 3.76749 11.1825 3.37565 10.2323C3.32009 10.0826 3.32009 9.91794 3.37565 9.76827C3.96674 8.33484 5.00677 7.13176 6.33965 6.3396" stroke="#64748B" stroke-width="1.33333" stroke-linecap="round" stroke-linejoin="round"/>
<path d="M3.33594 3.33276L16.6693 16.6661" stroke="#64748B" stroke-width="1.33333" stroke-linecap="round" stroke-linejoin="round"/>
</svg>
