<svg width="20" height="20" viewBox="0 0 20 20" fill="none" xmlns="http://www.w3.org/2000/svg">
<path d="M1.72006 10.2898C1.65061 10.1027 1.65061 9.89691 1.72006 9.70981C2.39647 8.06969 3.54465 6.66735 5.01903 5.68056C6.49341 4.69378 8.22759 4.16699 10.0017 4.16699C11.7759 4.16699 13.51 4.69378 14.9844 5.68056C16.4588 6.66735 17.607 8.06969 18.2834 9.70981C18.3528 9.89691 18.3528 10.1027 18.2834 10.2898C17.607 11.9299 16.4588 13.3323 14.9844 14.3191C13.51 15.3058 11.7759 15.8326 10.0017 15.8326C8.22759 15.8326 6.49341 15.3058 5.01903 14.3191C3.54465 13.3323 2.39647 11.9299 1.72006 10.2898Z" stroke="#64748B" stroke-width="1.66667" stroke-linecap="round" stroke-linejoin="round"/>
<path d="M10 12.5C11.3807 12.5 12.5 11.3807 12.5 10C12.5 8.61929 11.3807 7.5 10 7.5C8.61929 7.5 7.5 8.61929 7.5 10C7.5 11.3807 8.61929 12.5 10 12.5Z" stroke="#64748B" stroke-width="1.66667" stroke-linecap="round" stroke-linejoin="round"/>
</svg>
