<svg width="28" height="20" viewBox="0 0 28 20" fill="none" xmlns="http://www.w3.org/2000/svg">
<rect width="28" height="20" rx="2" fill="white"/>
<mask id="mask0_1400_20489" style="mask-type:luminance" maskUnits="userSpaceOnUse" x="0" y="0" width="28" height="20">
<rect width="28" height="20" rx="2" fill="white"/>
</mask>
<g mask="url(#mask0_1400_20489)">
<rect width="28" height="20" fill="#0A17A7"/>
<path d="M30.7734 0.294434L21.3262 6.6665H28V13.3335H21.3262L30.7734 19.7056L29.2822 21.9165L17.334 13.8569V21.3335H10.667V13.856L-1.28223 21.9165L-2.77344 19.7056L6.67383 13.3335H0V6.6665H6.67383L-2.77344 0.294434L-1.28223 -1.9165L10.667 6.14307V-1.3335H17.334V6.14209L29.2822 -1.9165L30.7734 0.294434Z" fill="white"/>
<path d="M18.668 6.33219L31.3333 -2" stroke="#DB1F35" stroke-width="0.666667" stroke-linecap="round"/>
<path d="M20.0137 13.6975L31.3675 21.3503" stroke="#DB1F35" stroke-width="0.666667" stroke-linecap="round"/>
<path d="M8.00513 6.31055L-3.83789 -1.6709" stroke="#DB1F35" stroke-width="0.666667" stroke-linecap="round"/>
<path d="M9.28963 13.605L-3.83789 22.3105" stroke="#DB1F35" stroke-width="0.666667" stroke-linecap="round"/>
<path fill-rule="evenodd" clip-rule="evenodd" d="M0 12H12V20H16V12H28V8H16V0H12V8H0V12Z" fill="#E6273E"/>
</g>
</svg>
