<svg width="24" height="26" viewBox="0 0 24 26" fill="none" xmlns="http://www.w3.org/2000/svg">
<path d="M6 10C6 8.4087 6.63214 6.88258 7.75736 5.75736C8.88258 4.63214 10.4087 4 12 4C13.5913 4 15.1174 4.63214 16.2426 5.75736C17.3679 6.88258 18 8.4087 18 10C18 17 21 19 21 19H3C3 19 6 17 6 10Z" stroke="#344256" stroke-width="1.33333" stroke-linecap="round" stroke-linejoin="round"/>
<path d="M10.3008 23C10.4682 23.3044 10.7142 23.5583 11.0133 23.7352C11.3123 23.912 11.6534 24.0053 12.0008 24.0053C12.3482 24.0053 12.6892 23.912 12.9883 23.7352C13.2873 23.5583 13.5334 23.3044 13.7008 23" stroke="#344256" stroke-width="1.33333" stroke-linecap="round" stroke-linejoin="round"/>
<rect x="14" width="8" height="8" rx="4" fill="#EF4444"/>
</svg>
