<svg width="28" height="20" viewBox="0 0 28 20" fill="none" xmlns="http://www.w3.org/2000/svg">
<rect width="28" height="20" rx="2" fill="white"/>
<mask id="mask0_1400_20463" style="mask-type:luminance" maskUnits="userSpaceOnUse" x="0" y="0" width="28" height="20">
<rect width="28" height="20" rx="2" fill="white"/>
</mask>
<g mask="url(#mask0_1400_20463)">
<path d="M28 20H0V18.667H28V20ZM28 17.333H0V16H28V17.333ZM28 14.667H0V13.333H28V14.667ZM28 12H0V10.667H28V12ZM28 9.33301H0V8H28V9.33301ZM28 6.66699H0V5.33301H28V6.66699ZM28 4H0V2.66699H28V4ZM28 1.33301H0V0H28V1.33301Z" fill="#D02F44"/>
<rect width="12" height="9.33333" fill="#46467F"/>
<g filter="url(#filter0_d_1400_20463)">
<path d="M2.00098 6.66626C2.36902 6.66644 2.66699 6.96517 2.66699 7.33325C2.66699 7.70133 2.36902 8.00007 2.00098 8.00024C1.63279 8.00024 1.33398 7.70144 1.33398 7.33325C1.33398 6.96506 1.63279 6.66626 2.00098 6.66626ZM4.66699 6.66626C5.03518 6.66626 5.33398 6.96506 5.33398 7.33325C5.33398 7.70144 5.03518 8.00024 4.66699 8.00024C4.29895 8.00007 4.00098 7.70133 4.00098 7.33325C4.00098 6.96517 4.29895 6.66644 4.66699 6.66626ZM7.33398 6.66626C7.70217 6.66626 8.00098 6.96506 8.00098 7.33325C8.00098 7.70144 7.70217 8.00024 7.33398 8.00024C6.96579 8.00024 6.66699 7.70144 6.66699 7.33325C6.66699 6.96506 6.96579 6.66626 7.33398 6.66626ZM10.001 6.66626C10.369 6.66644 10.667 6.96517 10.667 7.33325C10.667 7.70133 10.369 8.00007 10.001 8.00024C9.63279 8.00024 9.33398 7.70144 9.33398 7.33325C9.33398 6.96506 9.63279 6.66626 10.001 6.66626ZM3.33398 5.33325C3.70217 5.33325 4.00098 5.63205 4.00098 6.00024C4.0008 6.36828 3.70207 6.66626 3.33398 6.66626C2.9659 6.66626 2.66717 6.36828 2.66699 6.00024C2.66699 5.63205 2.96579 5.33325 3.33398 5.33325ZM6.00098 5.33325C6.36902 5.33343 6.66699 5.63216 6.66699 6.00024C6.66682 6.36818 6.36891 6.66608 6.00098 6.66626C5.63289 6.66626 5.33416 6.36828 5.33398 6.00024C5.33398 5.63205 5.63279 5.33325 6.00098 5.33325ZM8.66699 5.33325C9.03518 5.33325 9.33398 5.63205 9.33398 6.00024C9.33381 6.36828 9.03507 6.66626 8.66699 6.66626C8.29906 6.66608 8.00115 6.36818 8.00098 6.00024C8.00098 5.63216 8.29895 5.33343 8.66699 5.33325ZM2.00098 4.00024C2.36891 4.00042 2.66682 4.29833 2.66699 4.66626C2.66699 5.03434 2.36902 5.33308 2.00098 5.33325C1.63279 5.33325 1.33398 5.03445 1.33398 4.66626C1.33416 4.29822 1.6329 4.00024 2.00098 4.00024ZM4.66699 4.00024C5.03507 4.00024 5.33381 4.29822 5.33398 4.66626C5.33398 5.03445 5.03518 5.33325 4.66699 5.33325C4.29895 5.33308 4.00098 5.03434 4.00098 4.66626C4.00115 4.29833 4.29906 4.00042 4.66699 4.00024ZM7.33398 4.00024C7.70207 4.00024 8.0008 4.29822 8.00098 4.66626C8.00098 5.03445 7.70217 5.33325 7.33398 5.33325C6.96579 5.33325 6.66699 5.03445 6.66699 4.66626C6.66717 4.29822 6.9659 4.00024 7.33398 4.00024ZM10.001 4.00024C10.3689 4.00042 10.6668 4.29833 10.667 4.66626C10.667 5.03434 10.369 5.33308 10.001 5.33325C9.63279 5.33325 9.33398 5.03445 9.33398 4.66626C9.33416 4.29822 9.6329 4.00024 10.001 4.00024ZM3.33398 2.66626C3.70217 2.66626 4.00098 2.96506 4.00098 3.33325C4.00098 3.70144 3.70217 4.00024 3.33398 4.00024C2.96579 4.00024 2.66699 3.70144 2.66699 3.33325C2.66699 2.96506 2.96579 2.66626 3.33398 2.66626ZM6.00098 2.66626C6.36902 2.66644 6.66699 2.96517 6.66699 3.33325C6.66699 3.70133 6.36902 4.00007 6.00098 4.00024C5.63279 4.00024 5.33398 3.70144 5.33398 3.33325C5.33398 2.96506 5.63279 2.66626 6.00098 2.66626ZM8.66699 2.66626C9.03518 2.66626 9.33398 2.96506 9.33398 3.33325C9.33398 3.70144 9.03518 4.00024 8.66699 4.00024C8.29895 4.00007 8.00098 3.70133 8.00098 3.33325C8.00098 2.96517 8.29895 2.66644 8.66699 2.66626ZM2.00098 1.33325C2.36902 1.33343 2.66699 1.63216 2.66699 2.00024C2.66682 2.36818 2.36891 2.66608 2.00098 2.66626C1.6329 2.66626 1.33416 2.36828 1.33398 2.00024C1.33398 1.63205 1.63279 1.33325 2.00098 1.33325ZM4.66699 1.33325C5.03518 1.33325 5.33398 1.63205 5.33398 2.00024C5.33381 2.36828 5.03507 2.66626 4.66699 2.66626C4.29906 2.66608 4.00115 2.36818 4.00098 2.00024C4.00098 1.63216 4.29895 1.33343 4.66699 1.33325ZM7.33398 1.33325C7.70217 1.33325 8.00098 1.63205 8.00098 2.00024C8.0008 2.36828 7.70207 2.66626 7.33398 2.66626C6.9659 2.66626 6.66717 2.36828 6.66699 2.00024C6.66699 1.63205 6.96579 1.33325 7.33398 1.33325ZM10.001 1.33325C10.369 1.33343 10.667 1.63216 10.667 2.00024C10.6668 2.36818 10.3689 2.66608 10.001 2.66626C9.6329 2.66626 9.33416 2.36828 9.33398 2.00024C9.33398 1.63205 9.63279 1.33325 10.001 1.33325Z" fill="url(#paint0_linear_1400_20463)"/>
</g>
</g>
<defs>
<filter id="filter0_d_1400_20463" x="1.33398" y="1.33325" width="9.33398" height="7.66699" filterUnits="userSpaceOnUse" color-interpolation-filters="sRGB">
<feFlood flood-opacity="0" result="BackgroundImageFix"/>
<feColorMatrix in="SourceAlpha" type="matrix" values="0 0 0 0 0 0 0 0 0 0 0 0 0 0 0 0 0 0 127 0" result="hardAlpha"/>
<feOffset dy="1"/>
<feColorMatrix type="matrix" values="0 0 0 0 0 0 0 0 0 0 0 0 0 0 0 0 0 0 0.06 0"/>
<feBlend mode="normal" in2="BackgroundImageFix" result="effect1_dropShadow_1400_20463"/>
<feBlend mode="normal" in="SourceGraphic" in2="effect1_dropShadow_1400_20463" result="shape"/>
</filter>
<linearGradient id="paint0_linear_1400_20463" x1="1.33398" y1="1.33325" x2="1.33398" y2="8.00024" gradientUnits="userSpaceOnUse">
<stop stop-color="white"/>
<stop offset="1" stop-color="#F0F0F0"/>
</linearGradient>
</defs>
</svg>
