<svg width="20" height="20" viewBox="0 0 20 20" fill="none" xmlns="http://www.w3.org/2000/svg">
<path d="M15 15.7165H14.3667C13.7 15.7165 13.0667 15.9748 12.6 16.4414L11.175 17.8498C10.525 18.4914 9.46668 18.4914 8.81668 17.8498L7.39166 16.4414C6.925 15.9748 6.28333 15.7165 5.625 15.7165H5C3.61667 15.7165 2.5 14.6081 2.5 13.2415V4.14978C2.5 2.78311 3.61667 1.6748 5 1.6748H15C16.3833 1.6748 17.5 2.78311 17.5 4.14978V13.2415C17.5 14.5998 16.3833 15.7165 15 15.7165Z" stroke="#E6F2FF" stroke-width="1.5" stroke-miterlimit="10" stroke-linecap="round" stroke-linejoin="round"/>
<path d="M10.0003 8.33351C11.0726 8.33351 11.942 7.46418 11.942 6.39183C11.942 5.31947 11.0726 4.4502 10.0003 4.4502C8.92792 4.4502 8.05859 5.31947 8.05859 6.39183C8.05859 7.46418 8.92792 8.33351 10.0003 8.33351Z" stroke="#E6F2FF" stroke-width="1.5" stroke-linecap="round" stroke-linejoin="round"/>
<path d="M13.3327 13.0501C13.3327 11.5501 11.841 10.3335 9.99935 10.3335C8.15768 10.3335 6.66602 11.5501 6.66602 13.0501" stroke="#E6F2FF" stroke-width="1.5" stroke-linecap="round" stroke-linejoin="round"/>
</svg>
