<svg width="12" height="12" viewBox="0 0 12 12" fill="none" xmlns="http://www.w3.org/2000/svg">
<path fill-rule="evenodd" clip-rule="evenodd" d="M8.40946 0.47629C8.29753 0.297445 8.13263 0.157947 7.9377 0.0772129C7.74278 -0.00352098 7.52753 -0.0214734 7.32192 0.0258551L5.86268 0.361044C5.71313 0.395416 5.55773 0.395416 5.40819 0.361044L3.94894 0.0258551C3.74333 -0.0214734 3.52809 -0.00352098 3.33316 0.0772129C3.13824 0.157947 2.97333 0.297445 2.8614 0.47629L2.06604 1.74562C1.98488 1.87548 1.87532 1.98504 1.74546 2.06701L0.476127 2.86238C0.297591 2.97421 0.158297 3.13884 0.0775804 3.33344C-0.00313603 3.52803 -0.0212712 3.74292 0.0256921 3.94829L0.360881 5.40916C0.395129 5.55845 0.395129 5.71355 0.360881 5.86284L0.0256921 7.3229C-0.0214537 7.52839 -0.00340982 7.74345 0.0773153 7.93821C0.158041 8.13297 0.297437 8.29774 0.476127 8.40962L1.74546 9.20499C1.87532 9.28615 1.98488 9.39571 2.06685 9.52556L2.86221 10.7949C3.09108 11.1609 3.52772 11.3419 3.94894 11.2453L5.40819 10.9101C5.55773 10.8758 5.71313 10.8758 5.86268 10.9101L7.32274 11.2453C7.52822 11.2925 7.74329 11.2744 7.93805 11.1937C8.13281 11.113 8.29758 10.9736 8.40946 10.7949L9.20482 9.52556C9.28598 9.39571 9.39555 9.28615 9.5254 9.20499L10.7955 8.40962C10.9742 8.29758 11.1136 8.13263 11.1942 7.93771C11.2747 7.74279 11.2926 7.52761 11.2452 7.32209L10.9108 5.86284C10.8764 5.71329 10.8764 5.5579 10.9108 5.40835L11.246 3.94829C11.2932 3.74289 11.2753 3.52788 11.1947 3.33313C11.1141 3.13838 10.9749 2.97356 10.7964 2.86157L9.52622 2.0662C9.39654 1.98489 9.28694 1.8753 9.20564 1.74562L8.40946 0.47629ZM8.00123 3.82574C8.05143 3.73343 8.06386 3.62526 8.03592 3.52397C8.00798 3.42268 7.94185 3.33617 7.85142 3.28266C7.761 3.22914 7.65335 3.21278 7.55111 3.23702C7.44887 3.26127 7.36002 3.32422 7.30326 3.41264L5.18094 7.00475L3.89943 5.77762C3.86141 5.73859 3.81592 5.70761 3.76567 5.68653C3.71542 5.66546 3.66144 5.65472 3.60695 5.65495C3.55246 5.65519 3.49858 5.6664 3.44852 5.68791C3.39845 5.70943 3.35323 5.7408 3.31556 5.78017C3.27788 5.81954 3.24852 5.86609 3.22922 5.91705C3.20993 5.96801 3.20109 6.02233 3.20324 6.07678C3.20539 6.13123 3.21849 6.18468 3.24175 6.23396C3.26501 6.28324 3.29795 6.32732 3.33862 6.36359L4.9894 7.94539C5.03359 7.98764 5.08674 8.01936 5.1449 8.03818C5.20306 8.057 5.26472 8.06244 5.32528 8.05409C5.38583 8.04574 5.44372 8.02382 5.49462 7.98996C5.54551 7.9561 5.5881 7.91118 5.6192 7.85855L8.00123 3.82574Z" fill="#007BFF"/>
</svg>
